<?xml version="1.0" encoding="utf-8"?>
<!-- Generator: Adobe Illustrator 25.1.0, SVG Export Plug-In . SVG Version: 6.00 Build 0)  -->
<svg version="1.1" id="Layer_1" xmlns="http://www.w3.org/2000/svg" xmlns:xlink="http://www.w3.org/1999/xlink" x="0px" y="0px"
	 viewBox="0 0 120 120" style="enable-background:new 0 0 120 120;" xml:space="preserve">
<style type="text/css">
	.st0{fill:#033652;}
	.st1{fill:#00B1A4;}
</style>
<g>
	<g>
		<path class="st0" d="M82.2,113.6l-9.9-15.1C50.7,104.7,28.3,92.6,22,71S27.9,27,49.4,20.7c11.9-3.4,24.8-1.4,34.9,5.7l15.1-10.4
			C75.3-5.3,38.7-3,17.5,21.1S-1.8,81.7,22.3,103C38.7,117.4,61.8,121.6,82.2,113.6L82.2,113.6z"/>
		<path class="st1" d="M99.6,64.8l-9.2,6.1l-7.1-10.6l15.4-10.4l15.1-10.1c-0.9-3.1-2.3-6.1-4-9c-0.5-0.8-0.9-1.7-1.6-2.5
			c-0.9-1.6-2-2.8-3.1-4.3l-14.4,9.8L57.7,56.4l24.8,36.6l9.5,14c5.3-3.6,10.1-8.2,14-13.5L98.6,83L116,70.4
			c0.6-3.6,1.1-7.4,1.1-11.2c0-2-0.2-4-0.3-5.9L99.6,64.8z"/>
	</g>
</g>
</svg>
